/* XPM */
static char *result[] = {
/* columns rows colors chars-per-pixel */
"32 32 241 2 ",
"   c black",
".  c #000001",
"X  c #010001",
"o  c #020201",
"O  c #020202",
"+  c #181202",
"@  c #181203",
"#  c #1F1703",
"$  c #201803",
"%  c #2C2104",
"&  c #463407",
"*  c #4B3703",
"=  c #4C3903",
"-  c #4D3903",
";  c #513D04",
":  c #523D06",
">  c #5B4406",
",  c #5D4509",
"<  c #5F470A",
"1  c #5E470B",
"2  c #5F470B",
"3  c #644B07",
"4  c #684D03",
"5  c #684D06",
"6  c #6A4F07",
"7  c #654B08",
"8  c #674D0A",
"9  c #6E5103",
"0  c #6E5203",
"q  c #6C5004",
"w  c #6E520A",
"e  c #715307",
"r  c #725405",
"t  c #795A06",
"y  c #7B5C07",
"u  c #715409",
"i  c #725508",
"p  c #755708",
"a  c #755709",
"s  c #775909",
"d  c #7A5B09",
"f  c #78590A",
"g  c #795A0A",
"h  c #7B5C09",
"j  c #7C5C08",
"k  c #7E5E09",
"l  c #7C5D0A",
"z  c #805F07",
"x  c #826003",
"c  c #866305",
"v  c #866307",
"b  c #8E6905",
"n  c #8D6907",
"m  c #806008",
"M  c #826109",
"N  c #846309",
"B  c #876509",
"V  c #85640A",
"C  c #88650A",
"Z  c #89660A",
"A  c #8C690A",
"S  c #906B07",
"D  c #916C05",
"F  c #956F06",
"G  c #916C09",
"H  c #926D08",
"J  c #936E09",
"K  c #956F08",
"L  c #956F0A",
"P  c #9B7305",
"I  c #9B7406",
"U  c #9F7605",
"Y  c #9F7707",
"T  c #977008",
"R  c #987109",
"E  c #997208",
"W  c #9A7308",
"Q  c #98720B",
"!  c #9A730B",
"~  c #9C7408",
"^  c #9D7508",
"/  c #9D7509",
"(  c #9D750A",
")  c #A37905",
"_  c #A27806",
"`  c #A27907",
"'  c #A97D05",
"]  c #AB7F04",
"[  c #AC7F05",
"{  c #A17708",
"}  c #A17808",
"|  c #A27809",
" . c #A57B09",
".. c #A77D08",
"X. c #AD8003",
"o. c #AE8005",
"O. c #AC800A",
"+. c #B08206",
"@. c #B08307",
"#. c #B38504",
"$. c #B38506",
"%. c #B28407",
"&. c #B78705",
"*. c #B48607",
"=. c #B68707",
"-. c #B78806",
";. c #BB8A03",
":. c #BC8B03",
">. c #B98904",
",. c #B88907",
"<. c #BB8A06",
"1. c #BA8A07",
"2. c #BC8B04",
"3. c #BC8B06",
"4. c #BF8D05",
"5. c #BC8C06",
"6. c #BD8C06",
"7. c #BC8C07",
"8. c #BD8D07",
"9. c #BE8D07",
"0. c #BF8E07",
"q. c #B08308",
"w. c #B28408",
"e. c #B48608",
"r. c #B48609",
"t. c #B78808",
"y. c #B98A08",
"u. c #BB8C08",
"i. c #BD8C08",
"p. c #BD8D08",
"a. c #BE8E08",
"s. c #BF8E08",
"d. c #C08E03",
"f. c #C08E05",
"g. c #C18F06",
"h. c #C08F07",
"j. c #C29005",
"k. c #C39005",
"l. c #C29006",
"z. c #C29106",
"x. c #C49105",
"c. c #C69204",
"v. c #C69307",
"b. c #C89404",
"n. c #C89405",
"m. c #CA9605",
"M. c #C99607",
"N. c #CC9705",
"B. c #CD9805",
"V. c #CE9905",
"C. c #C89508",
"Z. c #D19B04",
"A. c #D39C04",
"S. c #D79F05",
"D. c #D49E06",
"F. c #D59F07",
"G. c #D8A003",
"H. c #DFA503",
"J. c #D8A004",
"K. c #D9A004",
"L. c #DCA304",
"P. c #DCA306",
"I. c #DDA404",
"U. c #DCA405",
"Y. c #DDA405",
"T. c #DEA404",
"R. c #DEA504",
"E. c #DFA504",
"W. c #DEA405",
"Q. c #E2A703",
"!. c #E1A704",
"~. c #E3A803",
"^. c #E5A903",
"/. c #E6AB03",
"(. c #E4A904",
"). c #E7AB04",
"_. c #E7AB05",
"`. c #E7AB06",
"'. c #E9AC03",
"]. c #E9AD03",
"[. c #EAAD03",
"{. c #EBAE03",
"}. c #ECAE03",
"|. c #EDAF03",
" X c #E8AC04",
".X c #EAAE04",
"XX c #EBAE04",
"oX c #EAAE05",
"OX c #ECAF04",
"+X c #EEB003",
"@X c #EFB003",
"#X c #EEB004",
"$X c #EEB005",
"%X c #F0B103",
"&X c #F0B203",
"*X c #F1B203",
"=X c #F2B203",
"-X c #F4B503",
";X c #F5B503",
":X c #F7B702",
">X c #F6B603",
",X c #F7B603",
"<X c #F6B703",
"1X c #F7B703",
"2X c #F2B405",
"3X c #F4B404",
"4X c #F4B504",
"5X c #F5B504",
"6X c #F6B704",
"7X c #F8B702",
"8X c #F8B703",
"9X c #F8B803",
"0X c #F9B803",
"qX c #FAB902",
"wX c #FBB902",
"eX c #FAB903",
"rX c #FBBA03",
"tX c #FCBA02",
"yX c #FCBB02",
"uX c #FDBB02",
"iX c #FDBB03",
"pX c #FFBC01",
"aX c #FEBC02",
"sX c #FFBC02",
"dX c #FEBC03",
"fX c #FDBC04",
"gX c #FDBC05",
"hX c #FDBD05",
"jX c #FEBC04",
"kX c #FEBD05",
"lX c #FDBD06",
"zX c #FDBD07",
"xX c #FEBD06",
"cX c #FEBD07",
"vX c #FDBD08",
"bX c #FEBD08",
"nX c #FDBE08",
"mX c #FDBE09",
"MX c #FDBE0A",
"NX c #FDBE0C",
"BX c None",
/* pixels */
"BXBXBXBXBXBXBXBXBXBXBXBXBXdXdXdXaXdXdXBXBXBXBXBXBXBXBXBXBXBXBXBX",
"BXBXBXBXBXBXBXBXBXBXdXsXpX1X=XA.'.E.uXpXsXdXBXBXBXBXBXBXBXBXBXBX",
"BXBXBXBXBXBXBXBXdXpXpX3.( k t.p q.B J ~ l.+XpXdXBXBXBXBXBXBXBXBX",
"BXBXBXBXBXBXfXsXpX*XpXx.| n.L.|.;XA.Y.i.s ;XpXpXsXfXBXBXBXBXBXBX",
"BXBXBXBXBXfXpXpXpXn.pXpXpXpXpXpXpXpXpXpXsXpX8Xg.pXpXgXBXBXBXBXBX",
"BXBXBXBXgXsX(.pXpXpXpXpXpXpXpXpXpXpXpXpXpXpXpXpXpXJ.pXgXBXBXBXBX",
"BXBXBXfXpX-.<  XpXpXpXpXpXpXpXpXpXpXpXpXpXpXpXpXpXm h.pXlXBXBXBX",
"BXBXBXsX0.O.P.pXpXpXpXpXpXpXpXpXpXpXpXpXpXpXpXpXpX6X%.F.sXBXBXBX",
"BXBXjXsXl ~ pXpXpXpXpXpXpXpXpXpXpXpXpXpXpXpXpXpXpXpX_.f !.jXBXBX",
"BXBXpXl.e.tXpXpXpXpXpXpXpXpXpXpXpXpXpXpXpXpXpXpXpXpXqXp.1.pXBXBX",
"BXjX4XT N.pXpXpXpXZ.- = = = = D ) * * * * * #.pXpXpXpX XW pXkXBX",
"BXsX@.v.tXpXpXpXpXf.@ + + + + q c + + + + + P pXpXpXpXyX{ 4.sXBX",
"BXpX7.e.pXpXpXpXpXpXpXpXpXpXpXpXpXpXpXpXpXpXpXpXpXpXpXpX..H pXBX",
"kXuXw S.pXpXpXpXpXT.0 9 b pXpXpXpXpXpXI.r ,XpXpXpXpXpXpX).wXpXzX",
"kX&Xr.XXpXpXpXpXpX&.X . % pXpXpXpXpXI.# O j.pXpXpXpXpXpX%XG Q.lX",
"hXV.g ;XpXpXpXpXpXpX5X3X0XpXpXpXpXY.# o I pXpXpXpXpXpXpX:Xy.~.kX",
"hXpXpXpXpXpXpXpXpX-X:.;.;.;.;.T.R.$   > ;.;.'.pXpXpXpXpXiX1 {.kX",
"kX;Xu oXpXpXpXpXpX]           ; 4           x pXpXpXpXpX).E pXzX",
"xXsX8 B.pXpXpXpXpX@X' ' ' ' ' Z.G.' ' ' ' ' H.pXpXpXpXpX+./ rXnX",
"BXpXeXu.pXpXpXpXpX[.d.B.d.b.].d./.c.K.I.W.uXT.pXpXpXpXpXM.w.pXBX",
"BXsX<.C uXpXpXpXpXX., K j y 7 >.z _ 5 3 : N c pXpXpXpXwXM D.sXBX",
"BXxX9X^ U.pXpXpXpX2.6 R & v S t Y e i n F $.U pXpXpXpXz.m.pXcXBX",
"BXBXpXp.*.pXpXpXpXpXpXpXpXpXpXpXpXpXpXpXpXpXpXpXpXpXwX! V pXBXBX",
"BXBXkX X*.k.pXpXpXpXpXpXpXpXpXpXpXpXpXpXpXpXpXpXpXpX-.d <XcXBXBX",
"BXBXBXaX$X` pXpXpXpXpXpXpXpXpXpXpXpXpXpXpXpXpXpXpX>Xh `.sXBXBXBX",
"BXBXBXmXpX;XpXpXpXpXpXpXpXpXpXpXpXpXpXpXpXpXpXpXpXpXpXpXNXBXBXBX",
"BXBXBXBXvXpXpXy.pXpXpXpXpXpXpXpXpXpXpXpXpXpXpXpXy.pXpXMXBXBXBXBX",
"BXBXBXBXBXvXpXpXpXC.5.pXpXpXpXpXpXpXpXpXuX6.=.pXpXpXMXBXBXBXBXBX",
"BXBXBXBXBXBXMXsXpXL Q  .s.x.^.pX-X}.o.8.Z a.A pXsXNXBXBXBXBXBXBX",
"BXBXBXBXBXBXBXBXxXpX'.} ,.2X[ ;Xa 9.2 .X<.pXpXcXBXBXBXBXBXBXBXBX",
"BXBXBXBXBXBXBXBXBXBXcXsXpXuX7X}.OX#X8XpXsXbXBXBXBXBXBXBXBXBXBXBX",
"BXBXBXBXBXBXBXBXBXBXBXBXBXmXvXzXzXnXMXBXBXBXBXBXBXBXBXBXBXBXBXBX"
};
