/* XPM */
static char *result[] = {
/* columns rows colors chars-per-pixel */
"64 64 95 2 ",
"   c #000000",
".  c #090705",
"X  c #0D0A06",
"o  c #0F0C08",
"O  c #140F08",
"+  c #161106",
"@  c #1E1706",
"#  c #161109",
"$  c #251C06",
"%  c #231A08",
"&  c #281F08",
"*  c #2F2305",
"=  c #2C2109",
"-  c #332606",
";  c #3A2B07",
":  c #33260A",
">  c #36280A",
",  c #3C2D0A",
"<  c #443307",
"1  c #483504",
"2  c #44330A",
"3  c #49370A",
"4  c #4D3A0A",
"5  c #533D06",
"6  c #533D09",
"7  c #554006",
"8  c #5B4406",
"9  c #56410A",
"0  c #5B440A",
"q  c #624805",
"w  c #644B0A",
"e  c #694E09",
"r  c #6B5006",
"t  c #6C510B",
"y  c #745606",
"u  c #775904",
"i  c #7B5B05",
"p  c #72550A",
"a  c #76590A",
"s  c #7B5C0A",
"d  c #805F06",
"f  c #836207",
"g  c #896607",
"h  c #8F6B06",
"j  c #84630A",
"k  c #896609",
"l  c #8E6A09",
"z  c #946E06",
"x  c #926D09",
"c  c #977007",
"v  c #9A7206",
"b  c #96710B",
"n  c #9A7309",
"m  c #A47A07",
"M  c #A87E07",
"N  c #A0770A",
"B  c #A47B09",
"V  c #A97E09",
"C  c #AE8107",
"Z  c #AD8109",
"A  c #B38507",
"S  c #B78807",
"D  c #BD8C07",
"F  c #B38509",
"G  c #B6880A",
"H  c #BA8B09",
"J  c #C08F07",
"K  c #C59207",
"L  c #CA9606",
"P  c #CD9907",
"I  c #C39209",
"U  c #CA9709",
"Y  c #CD9908",
"T  c #D49D06",
"R  c #D29D09",
"E  c #D7A006",
"W  c #DCA306",
"Q  c #D6A10B",
"!  c #DBA309",
"~  c #E1A706",
"^  c #E5AA06",
"/  c #E9AD06",
"(  c #E0A708",
")  c #E4AA08",
"_  c #E9AE09",
"`  c #EEB106",
"'  c #F4B505",
"]  c #F8B703",
"[  c #F7B806",
"{  c #FFBC01",
"}  c #F0B308",
"|  c #FCBE0B",
" . c #FCBF10",
".. c #FBC115",
"X. c None",
/* pixels */
"X.X.X.X.X.X.X.X.X.X.X.X.X.X.X.X.X.X.X.X.X.X.X.X.X.X.X.X.X.X.X.X.X.X.X.X.X.X.X.X.X.X.X.X.X.X.X.X.X.X.X.X.X.X.X.X.X.X.X.X.X.X.X.X.",
"X.X.X.X.X.X.X.X.X.X.X.X.X.X.X.X.X.X.X.X.X.X.X.X.| { { { { { { { { { { { { { { | X.X.X.X.X.X.X.X.X.X.X.X.X.X.X.X.X.X.X.X.X.X.X.X.",
"X.X.X.X.X.X.X.X.X.X.X.X.X.X.X.X.X.X.X.X.X.| { { { { { { { { { { { { { { { { { { { { { X.X.X.X.X.X.X.X.X.X.X.X.X.X.X.X.X.X.X.X.X.",
"X.X.X.X.X.X.X.X.X.X.X.X.X.X.X.X.X.X.X.{ { { { { { { { ( L { K g V { D J ' { { { { { { { | X.X.X.X.X.X.X.X.X.X.X.X.X.X.X.X.X.X.X.",
"X.X.X.X.X.X.X.X.X.X.X.X.X.X.X.X.X.{ { { { { { R g U j 3 9 ` 2 L W m e l 6 ` k ) ^ { { { { { { X.X.X.X.X.X.X.X.X.X.X.X.X.X.X.X.X.",
"X.X.X.X.X.X.X.X.X.X.X.X.X.X.X.{ { { { { { { ' = t G } , F ) 2 f N B p F 6 H l a 9 P D { { { { { { X.X.X.X.X.X.X.X.X.X.X.X.X.X.X.",
"X.X.X.X.X.X.X.X.X.X.X.X.X.X.{ { { { { { { { { 9 s t G e l ^ ` L T { D z ( b U 6 t < Q { { { { { { { X.X.X.X.X.X.X.X.X.X.X.X.X.X.",
"X.X.X.X.X.X.X.X.X.X.X.X.| { { { { { R ' { { { D Z } { { { { { { { { { { { { { ! / 2 { { { { { { { { { | X.X.X.X.X.X.X.X.X.X.X.X.",
"X.X.X.X.X.X.X.X.X.X.X.| { { { { { { 0 K { { { { { { { { { { { { { { { { { { { { { { { { { ' s { { { { { { X.X.X.X.X.X.X.X.X.X.X.",
"X.X.X.X.X.X.X.X.X.X.{ { { { { { { { { { { { { { { { { { { { { { { { { { { { { { { { { { { ' j { { { { { { | X.X.X.X.X.X.X.X.X.X.",
"X.X.X.X.X.X.X.X.X.| { { { { { { { { { { { { { { { { { { { { { { { { { { { { { { { { { { { { { { { { { { { { { X.X.X.X.X.X.X.X.X.",
"X.X.X.X.X.X.X.X.{ { { { n ' { { { { { { { { { { { { { { { { { { { { { { { { { { { { { { { { { { { { ' t { { { | X.X.X.X.X.X.X.X.",
"X.X.X.X.X.X.X.| { { { { , 4 D { { { { { { { { { { { { { { { { { { { { { { { { { { { { { { { { { { { D g { | { { | X.X.X.X.X.X.X.",
"X.X.X.X.X.X.X.{ { { N , , H / { { { { { { { { { { { { { { { { { { { { { { { { { { { { { { { { { { { s 2 6 F { { { X.X.X.X.X.X.X.",
"X.X.X.X.X.X.{ { { ( ' 4 H W { { { { { { { { { { { { { { { { { { { { { { { { { { { { { { { { { { { { / ' { Y V { { { X.X.X.X.X.X.",
"X.X.X.X.X.{ { { U 9 G G W { { { { { { { { { { { { { { { { { { { { { { { { { { { { { { { { { { { { { { { V 6 ! R { { { X.X.X.X.X.",
"X.X.X.X.X.{ { { , j t V { { { { { { { { { { { { { { { { { { { { { { { { { { { { { { { { { { { { { { { { U { _ > ' { { X.X.X.X.X.",
"X.X.X.X.| { { { W 6 0 | { { { { { { { { { { { { { { { { { { { { { { { { { { { { { { { { { { { { { { { { { T 3 a x { { { X.X.X.X.",
"X.X.X.X.{ { { { { F ' { { { { { { { { { { { { { { { { { { { { { { { { { { { { { { { { { { { { { { { { { { / ` { | { { { X.X.X.X.",
"X.X.X.{ { { n t x l { { { { { { { { { { { { { { { { { { { { { { { { { { { { { { { { { { { { { { { { { { { { F 9 9 b { { | X.X.X.",
"X.X.X.{ { ` R U 0 ] { { { { { { { { { / v v v v v v v v v v m ] { F z z z z c z c c c c I { { { { { { { { { { R , I { { { X.X.X.",
"X.X.| { { ) t 6 W { { { { { { { { { { q                       m W                       . { { { { { { { { { { P t { { { { | X.X.",
"X.X.{ { { s { Q ' { { { { { { { { { { 5                       v R                       . { { { { { { { { { { ] D A C ] { { X.X.",
"X.X.{ { Q y ) 0 { { { { { { { { { { { Z - * * * * * * * * * ; W ] 4 * * * * * * * * * * e { { { { { { { { { { { H 0 9 { { { X.X.",
"X.| { { Q 4 e G { { { { { { { { { { { { { { { { { { { { { { { { { { { { { { { { { { { { { { { { { { { { { { { { R # x E { { ..X.",
"X.{ { { { R G { { { { { { { { { { { { { { { { { { { { { { { { { { { { { { { { { { { { { { { { { { { { { { { { { { G : Z { { { X.",
"X.{ { { D 0 e { { { { { { { { { { { { { W ! W ! W ] { { { { { { { { { { { { { { D ^ { { { { { { { { { { { { { { { n ' { { { { X.",
"X.{ { ' > w ' { { { { { { { { { { { { s           q { { { { { { { { { { { { { s   % W { { { { { { { { { { { { { { { { { { { { X.",
"X.{ { { ` 9 U { { { { { { { { { { { { 8           1 { { { { { { { { { { { ] s       9 { { { { { { { { { { { { { { / I F ) { { X.",
"X.{ { I F ! ^ { { { { { { { { { { { { j           e { { { { { { { { { { { s       . S { { { { { { { { { { { { { { R s 9 B { { X.",
"X.{ { b s U { { { { { { { { { { { { { { / / / / / { { { { { { { { { { { s       . F { { { { { { { { { { { { { { { { L t x { { X.",
"X.{ { V 4 6 Q { { { { { { { { { { { { { { { { { { { { { { { { { { { { s       . A { { { { { { { { { { { { { { { { ( G ] { { { | ",
"X.{ { { { { { { { { { { { { { { { { { { { { { { { { { { { { { { { { s       . G { { { { { { { { { { { { { { { { { ] a e ` { { ..",
"X.{ { { { { { { { { { { { { { { { { { R i u u u u u u u u i f ' ..s         ; u u u u i V { { { { { { { { { { { { { 0 , D { { X.",
"X.{ { { P e U { { { { { { { { { { { { 8                       N T                       . { { { { { { { { { { { { I j ' { { { X.",
"X.{ { E % t ) { { { { { { { { { { { { 7                       m P                         { { { { { { { { { { { { ! 0 x { { { X.",
"X.{ { { ) > F { { { { { { { { { { { { D 5 6 5 6 6 5 6 6 6 5 0 / ] t 5 6 6 5 6 5 5 6 5 6 j { { { { { { { { { { { { e Q 4 ' { { X.",
"X.{ { { 2 , j { { { { { { { { { { { { { { { { { { { { { { { { { { { { { { { { { { { { { { { { { { { { { { { { { { 0 { 6 { { { X.",
"X.| { { { { R ' { { { { { { { { { { { { { { { { { { { { { { { { { { { { { { { { ] { { { { { { { { { { { { { { { } I ] P { { | X.",
"X...{ { { ` , / { { { { { { { { { { { C f i f G d d f N { M f i m ' v d g W ^ x U F { ' s { { { { { { { { { { { ` j 4 F { { ..X.",
"X.X.{ { { 3 w | { { { { { { { { { { { 8 < y u F d e   p k % y y m 6 , y 8 + D $ s . c ` X { { { { { { { { { { { y a W { { { X.X.",
"X.X.{ { { B e 9 ] { { { { { { { { { { 8 j > > ' ( & s { 2 B { { { o ! { { = k & i 4 # y X ..{ { { { { { { { { } 6 U s { { | X.X.",
"X.X.| { { ] _ | ) { { { { { { { { { { 8 9 x x I % > v B s - x x F 1 5 x s + G $ i s R @ X { { { { { { { { { { ( U { { { { ..X.X.",
"X.X.X.{ { ^ 2 4 l { { { { { { { { { { v q q 0 Z q q q y { x q q z ` i q r P W i A Z { W p { { { { { { { { { [ > a / { { { X.X.X.",
"X.X.X.| { { t I { ' { { { { { { { { { { { { { { { { { { { { { { { { { { { { { { { { { { { { { { { { { { { { x a t y { { | X.X.X.",
"X.X.X.X.{ { / ! a t { { { { { { { { { { { { { { { { { { { { { { { { { { { { { { { { { { { { { { { { { { { ` H B 6 ^ { { X.X.X.X.",
"X.X.X.X...{ { N H ] { { { { { { { { { { { { { { { { { { { { { { { { { { { { { { { { { { { { { { { { { { { ! 9 [ W { { | X.X.X.X.",
"X.X.X.X.X.{ { { V y 0 S { { { { { { { { { { { { { { { { { { { { { { { { { { { { { { { { { { { { { { { { R = = a { { { X.X.X.X.X.",
"X.X.X.X.X.| { { / ) w ! { { { { { { { { { { { { { { { { { { { { { { { { { { { { { { { { { { { { { { { W j , ' ' { {  .X.X.X.X.X.",
"X.X.X.X.X.X.{ { { ` 4 { { { { { { { { { { { { { { { { { { { { { { { { { { { { { { { { { { { { { { { { { L w G { { { X.X.X.X.X.X.",
"X.X.X.X.X.X.X.{ { { E { { { { { { { { { { { { { { { { { { { { { { { { { { { { { { { { { { { { { { { { { { { { { { ..X.X.X.X.X.X.",
"X.X.X.X.X.X.X.| { { { { { { { { { { { { { { { { { { { { { { { { { { { { { { { { { { { { { { { { { { { { { { { {  .X.X.X.X.X.X.X.",
"X.X.X.X.X.X.X.X.| { { { { { v E { { { { { { { { { { { { { { { { { { { { { { { { { { { { { { { { W k { { { { { | X.X.X.X.X.X.X.X.",
"X.X.X.X.X.X.X.X.X.| { { { { n W { { { { { { { { { { { { { { { { { { { { { { { { { { { { { { { { / n { { { { | X.X.X.X.X.X.X.X.X.",
"X.X.X.X.X.X.X.X.X.X.| { { { { { { { { H ] { { { { { { { { { { { { { { { { { { { { { { ] H { { { { { { { { | X.X.X.X.X.X.X.X.X.X.",
"X.X.X.X.X.X.X.X.X.X.X.| { { { { { { ` s 2 G { { { { { { { { { { { { { { { { { { { ' H 2 2 ! { { { { { { ..X.X.X.X.X.X.X.X.X.X.X.",
"X.X.X.X.X.X.X.X.X.X.X.X.| { { { { { x t 0 Y | P ! ' { { { { { { { { { { { { ' _ | 6 ` s a w { { { { {  .X.X.X.X.X.X.X.X.X.X.X.X.",
"X.X.X.X.X.X.X.X.X.X.X.X.X.X.{ { { { ) y w Q t 0 W 6 Z e b { { { W ] { F w 9 ! , w t { b p ) { { { | ..X.X.X.X.X.X.X.X.X.X.X.X.X.",
"X.X.X.X.X.X.X.X.X.X.X.X.X.X.X...{ { { { { V 3 4 P s { ) 3 { { { u U { 3 t t / ` 3 B { { { { { { | X.X.X.X.X.X.X.X.X.X.X.X.X.X.X.",
"X.X.X.X.X.X.X.X.X.X.X.X.X.X.X.X.X.{ { { { | { ` Y P { ^ e { { E 4 3 ` D 0 2 T { { { { { { { | X.X.X.X.X.X.X.X.X.X.X.X.X.X.X.X.X.",
"X.X.X.X.X.X.X.X.X.X.X.X.X.X.X.X.X.X.X.| { { { { { { { ' ^ { { A ) U R _ ^ { { { { { { { | X.X.X.X.X.X.X.X.X.X.X.X.X.X.X.X.X.X.X.",
"X.X.X.X.X.X.X.X.X.X.X.X.X.X.X.X.X.X.X.X.X...{ { { { { { { { { { { { { { { { { { { { ..X.X.X.X.X.X.X.X.X.X.X.X.X.X.X.X.X.X.X.X.X.",
"X.X.X.X.X.X.X.X.X.X.X.X.X.X.X.X.X.X.X.X.X.X.X.X...| { { { { { { { { { { { { | ..X.X.X.X.X.X.X.X.X.X.X.X.X.X.X.X.X.X.X.X.X.X.X.X.",
"X.X.X.X.X.X.X.X.X.X.X.X.X.X.X.X.X.X.X.X.X.X.X.X.X.X.X.X.X.X.X.| ..X.X.X.X.X.X.X.X.X.X.X.X.X.X.X.X.X.X.X.X.X.X.X.X.X.X.X.X.X.X.X."
};
