/* XPM */
static char *result[] = {
/* columns rows colors chars-per-pixel */
"16 16 102 2 ",
"   c #171101",
".  c #312402",
"X  c #312502",
"o  c #322503",
"O  c #473503",
"+  c #594202",
"@  c #5E4501",
"#  c #5E4502",
"$  c #584204",
"%  c #634904",
"&  c #715407",
"*  c #735507",
"=  c #7A5A02",
"-  c #7B5B03",
";  c #7D5D08",
":  c #886507",
">  c #8A6606",
",  c #8C6806",
"<  c #987003",
"1  c #A17808",
"2  c #AD8107",
"3  c #B68702",
"4  c #B28407",
"5  c #B28507",
"6  c #B78704",
"7  c #B68707",
"8  c #B78806",
"9  c #B88804",
"0  c #BA8A06",
"q  c #BE8D05",
"w  c #BD8D06",
"e  c #B28408",
"r  c #C28F04",
"t  c #C08E06",
"y  c #C08F06",
"u  c #C08F07",
"i  c #C39106",
"p  c #C59205",
"a  c #C79305",
"s  c #C59206",
"d  c #C79406",
"f  c #C99402",
"g  c #C99403",
"h  c #C99404",
"j  c #C89405",
"k  c #C99505",
"l  c #CB9604",
"z  c #CB9605",
"x  c #C89506",
"c  c #CB9706",
"v  c #CC9706",
"b  c #D39C03",
"n  c #D19B05",
"m  c #D69E04",
"M  c #D9A102",
"N  c #DAA102",
"B  c #DFA503",
"V  c #D8A004",
"C  c #DDA404",
"Z  c #DDA405",
"A  c #E1A603",
"S  c #E3A702",
"D  c #E1A704",
"F  c #E1A705",
"G  c #E4A803",
"H  c #E7AB02",
"J  c #E3A804",
"K  c #E5AA04",
"L  c #E7AC05",
"P  c #EDAF02",
"I  c #EDAF03",
"U  c #ECAF04",
"Y  c #EEB002",
"T  c #EFB002",
"R  c #EEB003",
"E  c #EFB103",
"W  c #EEB004",
"Q  c #F1B202",
"!  c #F1B203",
"~  c #F5B502",
"^  c #F6B502",
"/  c #F6B602",
"(  c #F7B602",
")  c #F7B704",
"_  c #F4B506",
"`  c #F8B702",
"'  c #F8B802",
"]  c #FBB902",
"[  c #FBBA03",
"{  c #FDBB02",
"}  c #FCBA03",
"|  c #FFBC01",
" . c #FEBC02",
".. c #FEBC03",
"X. c #F8B804",
"o. c #FCBB05",
"O. c #FDBC04",
"+. c #FEBC04",
"@. c #FEBC05",
"#. c #FEBD06",
"$. c #FEBD07",
"%. c None",
/* pixels */
"%.%.%.%.%.%.} R E  .%.%.%.%.%.%.",
"%.%.%.%.] B 1 w t 5 a | %.%.%.%.",
"%.%...` Q | | | | | | R ~ +.%.%.",
"%.%.x k | | | | | | | | C n %.%.",
"%.E 4 | | | | | | | | | | s K %.",
"%.u Q | G o o $ % . X b | ' q %.",
"..2 | | ( 3 S | | / M | | | d ..",
"U i | | P = f | ( O < | | | v W ",
"[ m | | H # @ - +   @ N | | 8 X.",
"..0 | | ^ 9 6 h l r l T | | 4 O.",
"%.7 / | N ; & > , * : g | E j %.",
"%.L z | | | | | | | | | | 4 Z %.",
"%.%.D | | | | | | | | | { V %.%.",
"%.%.#.R ! Y | | | | R I R $.%.%.",
"%.%.%.%.J e c A p 2 y F %.%.%.%.",
"%.%.%.%.%.%.@.) _ o.%.%.%.%.%.%."
};
